<svg width="24" height="24" fill="none" xmlns="http://www.w3.org/2000/svg"><g filter="url(#a)"><path fill-rule="evenodd" clip-rule="evenodd" d="M5.6 1.6c.2-.2.4-.3.7-.3h9a.7.7 0 1 0 0-1.3h-9A2.3 2.3 0 0 0 4 2.3v11.4A2.3 2.3 0 0 0 6.3 16h11.4a2.3 2.3 0 0 0 2.3-2.3V8a.7.7 0 1 0-1.3 0v5.7a1 1 0 0 1-1 1H6.3a1 1 0 0 1-1-1V2.3c0-.3.1-.5.3-.7Zm14.2.3a.7.7 0 1 0-1-.9l-7.2 7.7-1.8-2a.7.7 0 0 0-1 1l2.3 2.4a.7.7 0 0 0 1 0l7.7-8.2Z" fill="#FCFCFC"/></g><defs><filter id="a" x="0" y="0" width="24" height="24" filterUnits="userSpaceOnUse" color-interpolation-filters="sRGB"><feFlood flood-opacity="0" result="BackgroundImageFix"/><feColorMatrix in="SourceAlpha" values="0 0 0 0 0 0 0 0 0 0 0 0 0 0 0 0 0 0 127 0" result="hardAlpha"/><feOffset dy="4"/><feGaussianBlur stdDeviation="2"/><feComposite in2="hardAlpha" operator="out"/><feColorMatrix values="0 0 0 0 0 0 0 0 0 0 0 0 0 0 0 0 0 0 0.25 0"/><feBlend in2="BackgroundImageFix" result="effect1_dropShadow_576_2281"/><feColorMatrix in="SourceAlpha" values="0 0 0 0 0 0 0 0 0 0 0 0 0 0 0 0 0 0 127 0" result="hardAlpha"/><feOffset dy="4"/><feGaussianBlur stdDeviation="2"/><feComposite in2="hardAlpha" operator="out"/><feColorMatrix values="0 0 0 0 0 0 0 0 0 0 0 0 0 0 0 0 0 0 0.25 0"/><feBlend in2="effect1_dropShadow_576_2281" result="effect2_dropShadow_576_2281"/><feBlend in="SourceGraphic" in2="effect2_dropShadow_576_2281" result="shape"/></filter></defs></svg>