<svg width="24" height="24" fill="none" xmlns="http://www.w3.org/2000/svg"><path d="M20 7.7a9 9 0 0 0 .4-7.1l-.2-.4a.8.8 0 0 0-1.2.2C18 2.1 15.9 5 14.3 5a13 13 0 0 0-2.3-.2c-.7 0-1.4 0-2.1.2C8.1 5 6 2.1 5 .4L4.8.1a.8.8 0 0 0-1 0l-.2.5A9 9 0 0 0 4 7.7C2.6 8 1 8.3.2 9.4a1.6 1.6 0 0 0 0 1.6l.8.8 1 .2c.7 0 1.3-.2 2-.4v1.2a25.8 25.8 0 0 0 1.8 5 11 11 0 0 0-.6 1.8 3.2 3.2 0 0 0 .9 2.5c1.1 1.3 3.1 1.9 6 1.9 2.7 0 4.7-.6 5.9-1.9a3.3 3.3 0 0 0 .8-2.5 11 11 0 0 0-.5-1.9l.3-1c.6-1.2 1-2.5 1.4-3.9l.1-1.2 1.8.4c.4 0 .8 0 1.1-.3.3-.1.6-.4.8-.7a1.6 1.6 0 0 0 0-1.6c-.6-1-2.4-1.5-3.7-1.7Zm-.7-5a7 7 0 0 1-.8 4.6l-.6-.6c-.4-.4-1-.8-1.5-1a13 13 0 0 0 3-3Zm-14.6 0c.8 1.2 1.8 2.2 3 3L6 6.7a8 8 0 0 0-.6.6 7 7 0 0 1-.8-4.6Zm-3 7.6c-.1-.1-.1-.2 0-.2.1-.3 1-.7 2.8-1l-.3.7c-1 .5-2.3.9-2.6.5Zm16.8 2.3a25 25 0 0 1-1.8 5v.5c.3.5.5 1.1.6 1.7a1.8 1.8 0 0 1-.5 1.3c-.6.7-1.8 1.4-4.8 1.4-2.9 0-4.2-.8-4.7-1.4-.4-.3-.6-.8-.5-1.3.1-.6.3-1.2.6-1.7v-.5l-.5-1.4c-.6-1.2-1-2.4-1.3-3.7a5.3 5.3 0 0 1 1.6-4.8c1.2-1.1 3.9-1.4 4.8-1.4 1 0 3.6.3 4.8 1.4a5.3 5.3 0 0 1 1.7 4.8Zm3.9-2.3c-.2.4-1.6 0-2.6-.4l-.2-.7c1.7.2 2.6.6 2.8 1v.1Z" fill="#2D3440"/></svg>