<svg width="24" height="24" fill="none" xmlns="http://www.w3.org/2000/svg"><path d="M12 1.2a5.1 5.1 0 0 1 4.4 2.4 4.8 4.8 0 0 1 0 4.9c.3 0 .6.1.8.3l.5.7a1.6 1.6 0 0 1-.4 1.7 1.7 1.7 0 0 1-1.7.4L15 11l-.4-.8h-.2c0 .6-.3 1-.8 1.4a2.4 2.4 0 0 1-3 0c-.4-.3-.7-.8-.8-1.3l-.2-.1c0 .3-.1.5-.3.8a1.6 1.6 0 0 1-1.7.5c-.3 0-.5-.2-.7-.4a1.6 1.6 0 0 1-.4-1.7c0-.2.2-.5.5-.7.2-.2.5-.3.8-.3a4.7 4.7 0 0 1 1.8-6.6c.8-.5 1.7-.7 2.5-.7ZM12 0a6.4 6.4 0 0 0-5 2.5 6 6 0 0 0-1 5.4c-.5.4-.9 1-1 1.8 0 .7.1 1.4.5 2 .5.6 1.1 1 1.9 1.1a3 3 0 0 0 2-.4 3.6 3.6 0 0 0 2.6 1 3.7 3.7 0 0 0 2.6-1 3 3 0 0 0 3.9-.7 2.7 2.7 0 0 0-.5-3.8 5.9 5.9 0 0 0-1-5.4A6.2 6.2 0 0 0 12 0Z" fill="#2D3440"/><path d="M16.1 13.5c-.5 0-1 0-1.4-.3l-.2.2h.1l-.7.7-.3-.2h-.3l.4.5-.7.7-.7-.7.3-.3a4.5 4.5 0 0 1-1 0l.2.3-.7.7-.7-.7.4-.4-.3-.1-.3.2-.7-.6v-.1l-.2-.2c-.4.2-.9.3-1.4.3v.3l3.5 9.8.1.2h.1v.1H12c0 .1.2.1.2 0H12.4l.1-.1v-.1h.1l3.6-9.9v-.3Zm-2.4 2.7-.7.7-.7-.7.7-.7.7.7Zm-2.4 1 .7-.7.7.6-.7.7-.7-.7Zm1.4 1.8-.7.6-.7-.6.7-.7.7.7Zm-.7-4.4.7.7-.7.7-.7-.7.7-.7Zm-.2 1.6-.7.7-.7-.7.7-.7.7.7ZM9 13.8h.1l.7.6-.4.4-.4-1Zm.5 1.3.5-.5.7.7-.6.7-.4-.3-.2-.6Zm.5 1.4.7.6-.3.4-.4-1Zm.8 2-.3-.7.5-.4.7.6-.7.7-.2-.2Zm.6 1.7-.4-1 .7.7-.3.3Zm.5 1.4-.4-1 .4-.5.4.4-.4 1.1Zm.6-1.5-.3-.2.6-.6-.3.8Zm.6-1.6-.2.2-.7-.7.7-.6.4.4-.2.7Zm.4-1-.4-.4.7-.6-.3 1Zm.6-1.8-.3.3-.7-.7.7-.7.5.5-.2.6Zm.3-1-.3-.3.7-.7-.4 1Z" fill="#2D3440"/></svg>