<svg width="24" height="24" fill="none" xmlns="http://www.w3.org/2000/svg"><path d="M19 13.9C18.7 7 12.8.5 12.5.2l-.1-.1h-.5l-.1-.1h-.2v.2C11.2.5 5.2 7 5 13.9v.9a9.8 9.8 0 0 0 6.8 9.2h.4s6.5-1.9 6.8-9.2v-.9ZM6.8 11.3c1.3 1.3 2.9 2.3 4.5 3v3.3c-1.6-1-4.2-2.5-5-3.8l.5-2.5ZM8 7.7c1 1 2 1.7 3.2 2.2v2.8a13 13 0 0 1-4-2.9L8 7.7Zm8.7 2.1a13 13 0 0 1-4.1 3v-3a8.3 8.3 0 0 0 3.1-2.1l1 2.1Zm-4.1-1.4V2.6l2.5 3.7c-.7 1-1.5 1.6-2.5 2Zm0 9.2v-3.3c1.7-.7 3.2-1.7 4.6-3l.3 2.5c-.7 1.3-3.3 2.9-5 3.7h.1Zm-1.4-9.2c-1-.5-1.8-1.2-2.4-2 .7-1.4 1.5-2.6 2.4-3.8v5.8ZM6.5 16c1.5 1.2 3.1 2.2 4.8 3v3.2a8 8 0 0 1-3.1-2.5c-.9-1-1.5-2.4-1.7-3.7Zm6.2 6.2V19c1.7-.8 3.3-1.8 4.8-3a8.5 8.5 0 0 1-1.6 3.7c-.9 1.1-2 2-3.2 2.5Z" fill="#2D3440"/></svg>