<svg width="359" height="146" fill="none" xmlns="http://www.w3.org/2000/svg"><path d="M138.3 98.4a9 9 0 0 0-5 .9s-7 5.9-41.6-.9C66.2 93.4 53 94 53 94s4.3-29.3 3.1-37.5a2.3 2.3 0 0 0-2.4-2c-2.6 0-4.1.9-4.1 2.3.2 5.5 0 11-.6 16.5a14 14 0 0 1-14.4 9.2c-11-.7-13.4-8.8-14.4-14.2-1-5.5-1.5-20.7 1.4-27 0 0 16.7.6 27.2-8.4s9.8-16.8 4.9-20C48.7 9.3 37 10 28 18.1a45.4 45.4 0 0 0-11.8 16.4S3 31.8 6 18C9.3 3.6 29 5.3 29 5.3c4 .8 4.3 1.2 5.6-.2 1.4-1.4 2.4-4.9-4-5C24-.3 4.7 3 1 15.7c-4 13.7 3.3 23.5 13.1 25 0 0-5.3 23.7 1.3 35.4a20.8 20.8 0 0 0 20 11.5c3.9 0 10.7-2.2 12.6-5.3 0 0-.9 8.4-1.6 11.5 0 0-16.2-.2-21.3 2.3-8.6 4.6-6.8 15.3-3.5 19 2.8 3.3 11.2 5 17.3 2.2a23.2 23.2 0 0 0 13-18c9.8-.6 19.7.5 29.2 3.1 14.4 4.4 34.4 8.4 40.5 8.4 6 0 18.6-1.8 19.4-6.8.4-3.3-.8-5-2.8-5.7ZM37 20.1s7.7-5.8 11.3-2.2a5 5 0 0 1 .2 6.6C47 26.5 43 33 23.7 36.1c0 0 6-10.7 13.3-16Zm.6 91.2s-10.5 5.8-11.6-2a7.4 7.4 0 0 1 3.8-8.5c1.8-1 4.4-2 15.3-1.7a14.9 14.9 0 0 1-7.5 12.2Z" fill="#2D3440"/><path d="M171.7 55.6v16.2c-.2 2-.9 4.1-2 5.9a13 13 0 0 1-2.8 3.4c-1.2 1.1-2-1.3-2.5-2.3-3.2-6.8-1.7-16-.4-23.1.6-3.4-6.3-2.5-6.9.5-1.2 6.1-1.7 12.3-1.3 18.5a4.3 4.3 0 0 0-3 1.8c-1.3 2.5-4.8 11-9 7.6-3.1-2.3-3.4-8.8-3.8-12.4-.3-5 .3-10 2-14.6-.2.4 2.6-6.7 3.8-4a8.5 8.5 0 0 1-1.4 7.3c-3.6 2.8 2 4 4.3 2.2 4.2-3.1 7-13.4-.2-14.6-8-1.3-12.7 6.9-14.4 13.4-.9 3.7-1.3 7.6-1.2 11.4a33 33 0 0 1-7 9.4c-2.7 1.4-2.6-.5-2.5-1.8 0-1.2 1.2-12 1.8-19.3.6-3 .2-6-1.1-8.6-1-2-9.4-6.6-16.7 2a28 28 0 0 0-7.2 16.4L98.6 74c-3.5 6.4-8 9.1-9.5 4.7a35.9 35.9 0 0 1-1.7-14.6 90.4 90.4 0 0 0 11.8-27.5c3.5-15.6 2.8-23.4 1-24.7-2-1.3-10-4.5-14.8 14.7a125.6 125.6 0 0 0-3.7 41.9c-.8 1.6-1.7 3.5-3 5.7-3.4 6.4-7.8 9.1-9.4 4.7a35.9 35.9 0 0 1-1.6-14.5 90.4 90.4 0 0 0 11.8-27.6c3.6-15.8 2.9-23.6 1-24.9-2-1.3-10-4.5-14.8 14.7C61 45.9 60 66.8 64.6 80.9c0 0 2.5 7.9 7.2 7.3 4-.5 8.6-4.3 11.3-11.5l1.1 4.2s2.5 7.9 7.3 7.3c3.2-.4 7-3.1 9.6-8 1.7 4.3 5.2 7.8 9.8 7 6.3-1.1 7.6-4.5 7.6-4.5s-.2 5.6 3.8 5.6c3.6 0 6.4-2.1 9.2-7.4l1.8-3.5c.8 5 3 9.5 7 11.3 7 3 13.1-2.7 16.7-8.4a10.1 10.1 0 0 0 5.8 6 8.7 8.7 0 0 0 8.8-2v8.2a6 6 0 0 0-3.6 1 27.4 27.4 0 0 0-9.8 24.6 7.6 7.6 0 0 0 7.4 7c1.2 0 2.5-.3 3.6-.9 7.2-3.1 8.3-14 9-20.7 1.4-16 .2-32.7.2-48.7 0-3-6.7-1.6-6.7.8ZM70.6 29.4c1.6-6.2 3-8.7 4.6-8.7 1.6 0 2.2 1.6 1.1 7-2 10.3-5.2 20.3-9.5 29.9 0 0 2.2-22 3.8-28.2Zm19.6 0c1.6-6.2 3.1-8.7 4.6-8.7 1.4 0 2.2 1.6 1 7-1 5.4-4.6 20.2-9.5 29.9 0 0 2.4-22 4-28.2Zm30 29.2c-.2 1.4-1 10-2.3 14.7-1.3 4.7-2.1 6.4-6 8-3.7 1.6-5.6-3.3-5.6-3.3-2.7-7.5 1-14 3.9-18.6 3-4.5 6-4.9 7.7-4.7a3.2 3.2 0 0 1 2.4 2.7v1.2Zm51.3 42.2c.1 6.3-1.1 12.5-3.7 18.3-1.6.3-2.3-.3-2.9-3-.4-2.4-.4-5 0-7.5.8-4.7 3-9 6.5-12.1v4.3ZM215.4 49A25.1 25.1 0 0 1 202 35c-3-9 6.8-15.6 14.7-15.2 7.8.4 12 8.4 11.6 15.7-.1 2.5-1.7 8.3-4.9 5.3a15 15 0 0 1-3.6-8.5c-.5-2.8-7.2-1.1-6.8 1.8 1.4 8.6 10.6 18 18.5 9a17.2 17.2 0 0 0-6.1-26.2A23.8 23.8 0 0 0 196 27c-6.3 11.4 6.4 22.5 15.5 26.5 14.5 7.8 15 33-4.2 33.1a19.4 19.4 0 0 1-18-13.1c-1.3-4-.6-17.7 4.7-18.8 4.2-.8 3-4.7-1-4-8.7 1.8-12 13-11 20.8 1.3 12.5 13 19.6 24.7 19.5a22.3 22.3 0 0 0 22.5-17.7 22 22 0 0 0-14-24.3Z" fill="#2D3440"/><path d="M258.7 86.2c-6.6-3.6-2.8-17.7-1.8-23.1.6-3.5 3.6-9-1.2-10.1-5.6-1.4-12.2 4-17 9 0-5.8.5-11.7 1.3-17.5a36.4 36.4 0 0 0 16.8-17.3c3-6.1 4.5-18.8-5.8-15-9.3 3.2-12.5 14-15.4 22.7-1.1 3.3-2 6.7-2.6 10.2l-2.8 1c-3.9 1.2-3.4 3.3.6 2.1l1.8-.6c-1.8 13.2-.6 27 .6 39.8 0 1.3 7 0 6.8-1.8-.5-5.7-1-11.5-1.2-17.2.6-.2 1.1-.5 1.5-1a52.6 52.6 0 0 1 9.3-9.2l1.1-.8c1.6-1.2 1.9-1.2.9 0-.4 2.3-.9 4.5-1.5 6.7-1.2 7-5 20.8 3.2 25.2 1.7 1 8-1.7 5.4-3Zm-15.1-56.5c.7-2 1.6-4.1 2.5-6.1 1.1-2.6 4-11.2 6.2-7 1.7 3.2-1 8.6-2.2 11.8-1.9 5-5 9.3-9.3 12.4.7-3.7 1.6-7.4 2.8-11Z" fill="#2D3440"/><path d="M283.8 69.8c0-7.7-.9-17.6-10-18.4-10.1-1-14 9.6-14.2 17.5a1.4 1.4 0 0 0 .8 1.4c0 7.4 1.8 17 10.6 16.8 9.7-.1 12.8-8.7 12.8-17.3ZM272 82.6c-5.7-2.3-5.2-12.2-4.8-17a1.3 1.3 0 0 0-.5-1.2c.7-4.7 2.5-11.7 6.6-8.2 3.3 2.9 3.4 9.7 3.6 13.7.1 2.8-.2 14.5-4.9 12.7ZM357.3 112.1c-2.6-6.7-8.4-9.4-14.7-9.7-.7-1.7-1.6-3.3-2.6-4.8-9.1-13.6-30.8-11.7-45.5-4.7l-.3-6.4a17 17 0 0 0 15.2-7c4-5.6 3.3-15.6 1.8-21.9-1.4-5.9-7.2-4.8-11.5-2.8-1.6.7-3 1.7-4.3 3 0-1.7.2-3.3.3-4.8.3-3.6-6.6-2.7-6.8.5-1.1 14.5-.7 29-1 43.5a34.6 34.6 0 0 0-12.6 28.3c0 5.3 4.5 9.4 9.4 5.6 6.7-5.2 8.7-15.6 9.7-23.5.4-3.5.5-7 .4-10.6a32.6 32.6 0 0 1 35.4-.2c2.3 1.6 4.1 3.8 5.3 6.3-3.7.7-7.3 1.8-10.8 3.5-4 1.9-9.9 6.4-9.6 11.5a7 7 0 0 0 5.3 7l.7.3c14.3 2.3 25-6.2 23-18.2 7 3.9 9.5 12.7 7 20.3-5.5 17.1-27 21-39.5 9.5-1.3-1.2-7.4 1.4-6.3 2.4 18 16.5 63 1.2 52-27.1Zm-69.9-4.1a36.6 36.6 0 0 1-4.5 15.7s-.6.2-.7-1.6c0-6.6 1.8-13 5.4-18.5 0 1.4 0 2.9-.2 4.4Zm7.3-41.9.4-.4a32.8 32.8 0 0 1 8.6-9.4c.8.3 1.6 2.3 1.8 5 .8 6.5 1 23.6-9.2 22-.8 0-1.6.1-2.3.4 0-6 .3-11.8.7-17.6Zm30.6 55.6h-.2c-4-1-3.5-4.7-3-7.2 1.2-6 8.4-9.1 14.3-9.4 3 8.5.7 18.6-11.1 16.6Z" fill="#2D3440"/></svg>