<svg width="24" height="24" fill="none" xmlns="http://www.w3.org/2000/svg"><path d="M14.4 3.8c0-1-.4-2-1-2.7A3.4 3.4 0 0 0 10.9 0c-1 0-1.8.4-2.5 1.1a4 4 0 0 0-1 2.7v11c-1 1-1.4 2.4-1.4 3.8 0 .9.2 1.8.6 2.6.4.7 1 1.4 1.6 1.9a4.6 4.6 0 0 0 4.7.5 5 5 0 0 0 2-1.6c.4-.7.8-1.5 1-2.4 0-.9 0-1.8-.2-2.7-.3-.8-.7-1.6-1.3-2.2V3.8Zm.1 14.8c0 .7-.1 1.3-.4 1.9-.3.6-.7 1-1.2 1.4a3.4 3.4 0 0 1-3.5.2c-.5-.3-1-.7-1.4-1.2a4 4 0 0 1-.3-3.8c.2-.6.6-1.1 1-1.5V3.8c0-.6.3-1.2.7-1.6a2 2 0 0 1 1.5-.7 2 2 0 0 1 1.5.7c.4.4.6 1 .6 1.6v11.6a4.1 4.1 0 0 1 1.5 3.2Z" fill="#2D3440"/><path d="M11.7 16.2V4l-.3-.6a.7.7 0 0 0-.4-.2c-.2 0-.4 0-.5.2-.2.2-.2.4-.2.6v12.3c-.5.2-.9.6-1.1 1a2.4 2.4 0 0 0 .4 2.9c.4.3.9.5 1.4.5.4 0 1-.2 1.3-.5.4-.3.6-.8.7-1.3.1-.6 0-1.1-.2-1.6-.3-.4-.7-.8-1.1-1ZM20 3h-4.2v1.5H20V3ZM20 6h-4.2v1.5H20V6ZM20 9h-4.2v1.5H20V9ZM20 12h-4.2v1.5H20V12Z" fill="#2D3440"/></svg>